{
    "asset": {
        "version": "2.0",
        "generator": "Open Asset Import Library (assimp v5.0.5eb040c7)"
    },
    "accessors": [
        {
            "bufferView": 0,
            "byteOffset": 0,
            "componentType": 5126,
            "count": 42976,
            "type": "VEC3",
            "max": [
                2016.789306640625,
                1352.4932861328126,
                -927.7616577148438
            ],
            "min": [
                1799.789306640625,
                -0.9771290421485901,
                -1150.6875
            ]
        },
        {
            "bufferView": 1,
            "byteOffset": 0,
            "componentType": 5126,
            "count": 42976,
            "type": "VEC3",
            "max": [
                1.0,
                1.0,
                1.0
            ],
            "min": [
                -1.0,
                -1.0,
                -1.0
            ]
        },
        {
            "bufferView": 2,
            "byteOffset": 0,
            "componentType": 5126,
            "count": 42976,
            "type": "VEC2",
            "max": [
                0.0,
                0.0
            ],
            "min": [
                0.0,
                0.0
            ]
        },
        {
            "bufferView": 3,
            "byteOffset": 0,
            "componentType": 5125,
            "count": 148734,
            "type": "SCALAR",
            "max": [
                42975
            ],
            "min": [
                0
            ]
        },
        {
            "bufferView": 4,
            "byteOffset": 0,
            "componentType": 5126,
            "count": 76259,
            "type": "VEC3",
            "max": [
                2016.789306640625,
                1565.4833984375,
                -1112.647216796875
            ],
            "min": [
                1799.7838134765626,
                -0.7522961497306824,
                -1341.494384765625
            ]
        },
        {
            "bufferView": 5,
            "byteOffset": 0,
            "componentType": 5126,
            "count": 76259,
            "type": "VEC3",
            "max": [
                1.0,
                1.0,
                1.0
            ],
            "min": [
                -1.0,
                -1.0,
                -1.0
            ]
        },
        {
            "bufferView": 6,
            "byteOffset": 0,
            "componentType": 5126,
            "count": 76259,
            "type": "VEC2",
            "max": [
                0.0,
                0.0
            ],
            "min": [
                0.0,
                0.0
            ]
        },
        {
            "bufferView": 7,
            "byteOffset": 0,
            "componentType": 5125,
            "count": 294657,
            "type": "SCALAR",
            "max": [
                76258
            ],
            "min": [
                0
            ]
        }
    ],
    "buffers": [
        {
            "byteLength": 5589084,
            "uri": "result.bin"
        }
    ],
    "bufferViews": [
        {
            "buffer": 0,
            "byteOffset": 0,
            "byteLength": 515712,
            "target": 34962
        },
        {
            "buffer": 0,
            "byteOffset": 515712,
            "byteLength": 515712,
            "target": 34962
        },
        {
            "buffer": 0,
            "byteOffset": 1031424,
            "byteLength": 343808,
            "target": 34962
        },
        {
            "buffer": 0,
            "byteOffset": 1375232,
            "byteLength": 594936,
            "target": 34963
        },
        {
            "buffer": 0,
            "byteOffset": 1970168,
            "byteLength": 915108,
            "target": 34962
        },
        {
            "buffer": 0,
            "byteOffset": 2885276,
            "byteLength": 915108,
            "target": 34962
        },
        {
            "buffer": 0,
            "byteOffset": 3800384,
            "byteLength": 610072,
            "target": 34962
        },
        {
            "buffer": 0,
            "byteOffset": 4410456,
            "byteLength": 1178628,
            "target": 34963
        }
    ],
    "materials": [
        {
            "name": "DefaultMaterial",
            "pbrMetallicRoughness": {
                "baseColorFactor": [
                    0.6000000238418579,
                    0.6000000238418579,
                    0.6000000238418579,
                    1.0
                ],
                "metallicFactor": 0.0
            }
        },
        {
            "name": "Металл - Хром 01",
            "pbrMetallicRoughness": {
                "baseColorFactor": [
                    0.6000000238418579,
                    0.6000000238418579,
                    0.6000000238418579,
                    1.0
                ],
                "metallicFactor": 0.0
            }
        }
    ],
    "meshes": [
        {
            "name": "МРФ-002",
            "primitives": [
                {
                    "mode": 4,
                    "material": 1,
                    "indices": 3,
                    "attributes": {
                        "POSITION": 0,
                        "NORMAL": 1,
                        "TEXCOORD_0": 2
                    }
                }
            ]
        },
        {
            "name": "МРФ-001",
            "primitives": [
                {
                    "mode": 4,
                    "material": 1,
                    "indices": 7,
                    "attributes": {
                        "POSITION": 4,
                        "NORMAL": 5,
                        "TEXCOORD_0": 6
                    }
                }
            ]
        }
    ],
    "nodes": [
        {
            "name": "input.obj",
            "children": [
                1,
                2
            ]
        },
        {
            "name": "МРФ-002",
            "mesh": 0
        },
        {
            "name": "МРФ-001",
            "mesh": 1
        }
    ],
    "scenes": [
        {
            "nodes": [
                0
            ]
        }
    ],
    "scene": 0
}